<?xml version="1.0" encoding="UTF-8"?>
<svg id="Layer_1" data-name="Layer 1" xmlns="http://www.w3.org/2000/svg" xmlns:xlink="http://www.w3.org/1999/xlink" viewBox="0 0 810 810">
  <defs>
    <style>
      .cls-1 {
        fill: none;
      }

      .cls-2 {
        fill: #fff;
      }

      .cls-3 {
        fill: #f8991d;
      }

      .cls-4 {
        clip-path: url(#clippath);
      }
    </style>
    <clipPath id="clippath">
      <rect class="cls-1" x="164.25" y="164.25" width="481.5" height="481.5"/>
    </clipPath>
  </defs>
  <g class="cls-4">
    <polygon class="cls-3" points="476.18 258.75 439.34 270.29 487.72 295.59 476.18 258.75"/>
    <path class="cls-2" d="M490.73,349.66c.75-1.74,1.66-3.54,2.74-5.31,7.06-11.54,18.51-17.14,34.99-17.14,13.67,0,24.9,4.55,32.48,13.17,2.42,2.75,4.43,5.87,6.02,9.29h-76.24ZM580.67,323.02c-6.22-7.07-13.84-12.56-22.65-16.33-8.94-3.82-18.88-5.76-29.55-5.76-14.31,0-26.85,3.2-37.28,9.51-8.57,5.19-15.58,12.38-20.83,21.37-8.48,14.53-9.41,28.76-9.49,30.34l-.68,13.79h110.94c-.09,1.09-.2,2.19-.34,3.3-1.73,13.55-8.22,31.44-29.27,39.75-16.95,6.69-35.24,4.43-47.61,1.36-13.38-3.32-25.53-8.61-37.17-16.16-9.33-6.06-18.14-13.46-26.8-22.54-5.59,7.35-11.16,14.4-16.44,20.78,22.09,22.31,46.4,36.55,74.07,43.42,10.1,2.51,19.99,3.76,29.47,3.76,12.18,0,23.69-2.06,34.11-6.17,13.17-5.2,23.86-13.37,31.77-24.3,7.45-10.28,12.13-22.58,13.92-36.56,2.97-23.19-2.78-44.34-16.17-59.55h0Z"/>
    <path class="cls-2" d="M249.06,340.37c7.58-8.62,18.82-13.17,32.48-13.17,16.49,0,27.93,5.61,34.99,17.14,1.09,1.78,1.99,3.57,2.74,5.31h-76.24c1.59-3.42,3.6-6.54,6.02-9.29h0ZM462.55,307.14c2.41-4.01,4.83-8.02,7.24-12.03.14-.23.28-.47.42-.71l-23.09-12.11c-5.05,8.14-11.15,18.23-12.07,19.72-9.94,16.17-19.38,32.68-30.06,48.35-9.43-13.73-18.2-28.52-26.99-43.66l-22.72,13.18c10.59,18.25,21.21,36.08,33.09,52.52-1.61,1.91-3.25,3.8-4.94,5.64-9.75,10.75-19.61,19.3-30.15,26.14-11.64,7.55-23.79,12.84-37.17,16.16-12.36,3.07-30.66,5.33-47.61-1.36-21.05-8.31-27.54-26.2-29.27-39.75-.14-1.11-.26-2.21-.34-3.3h110.94l-.68-13.79c-.08-1.57-1.01-15.81-9.49-30.34-5.25-8.99-12.25-16.18-20.83-21.37-10.43-6.31-22.97-9.51-37.28-9.51-10.67,0-20.62,1.94-29.55,5.76-8.81,3.77-16.43,9.26-22.65,16.33-13.39,15.22-19.14,36.37-16.17,59.55,1.79,13.98,6.47,26.28,13.92,36.56,7.92,10.93,18.61,19.1,31.77,24.3,10.42,4.11,21.93,6.17,34.11,6.17,9.48,0,19.37-1.25,29.47-3.76,30.36-7.54,56.67-23.95,80.44-50.14,17.66-19.46,31.46-41.71,44.96-64.14,4.9-8.14,9.8-16.28,14.7-24.42h0Z"/>
    <polygon class="cls-2" points="263.5 462.49 278.41 462.49 278.41 492.01 294.8 492.01 294.8 505.63 263.5 505.63 263.5 462.49 263.5 462.49"/>
    <polygon class="cls-2" points="324.87 462.49 355.93 462.49 355.93 473.52 339.35 473.52 339.35 478.51 354.32 478.51 354.32 489.23 339.35 489.23 339.35 494.41 356.54 494.41 356.54 505.62 324.87 505.62 324.87 462.49 324.87 462.49"/>
    <polygon class="cls-2" points="383.78 462.49 399.68 462.49 403.8 475.86 406.89 486.21 407.13 486.21 410.27 475.86 414.4 462.49 430.24 462.49 414.77 505.63 399.24 505.63 383.78 462.49 383.78 462.49"/>
    <polygon class="cls-2" points="458.95 462.49 490.01 462.49 490.01 473.52 473.43 473.52 473.43 478.51 488.41 478.51 488.41 489.23 473.43 489.23 473.43 494.41 490.63 494.41 490.63 505.62 458.95 505.62 458.95 462.49 458.95 462.49"/>
    <polygon class="cls-2" points="521.56 462.49 536.47 462.49 536.47 492.01 552.86 492.01 552.86 505.63 521.56 505.63 521.56 462.49 521.56 462.49"/>
  </g>
</svg>