<?xml version="1.0" encoding="UTF-8"?>
<svg id="Layer_1" data-name="Layer 1" xmlns="http://www.w3.org/2000/svg" viewBox="0 0 1780 1625">
  <defs>
    <style>
      .cls-1 {
        fill: none;
      }

      .cls-2 {
        fill: #253e35;
      }

      .cls-3 {
        fill: #fdf001;
      }
    </style>
  </defs>
  <path class="cls-1" d="M379.15,584.93c-56.6,0-103.08,18.83-134.4,54.51h-.1c-10.01,11.3-18.34,24.18-24.88,38.36h315.39c-3.07-7.24-6.84-14.67-11.3-22-29.14-47.68-76.52-70.87-144.71-70.87h0Z"/>
  <path class="cls-1" d="M1400.56,585.02c-68.09,0-115.47,23.09-144.71,70.87-4.46,7.33-8.23,14.77-11.3,22h-.1,315.39c-6.54-14.17-14.87-27.06-24.88-38.46-31.42-35.68-77.81-54.51-134.4-54.51v.1h0Z"/>
  <polygon class="cls-3" points="1184.28 301.85 1031.94 349.62 1232.06 454.29 1184.28 301.85"/>
  <path class="cls-2" d="M1616.53,567.68c-25.77-29.24-57.29-51.94-93.67-67.6-36.97-15.76-78.1-23.79-122.21-23.79-59.17,0-111.11,13.28-154.23,39.35-35.48,21.51-64.43,51.24-86.13,88.41-35.09,60.07-38.95,118.94-39.25,125.48l-2.78,57.09h458.92c-.4,4.46-.79,9.02-1.39,13.68-7.14,56.1-34,130.04-121.12,164.44-70.08,27.65-145.8,18.34-196.95,5.65-55.31-13.78-105.66-35.58-153.73-66.81-38.56-25.08-75.03-55.7-110.91-93.27-23.09,30.43-46.19,59.57-67.99,85.94,91.39,92.28,191.99,151.15,306.37,179.6,41.83,10.41,82.66,15.56,121.91,15.56,50.35,0,98.03-8.52,141.14-25.57,54.51-21.51,98.72-55.31,131.43-100.51,30.83-42.52,50.15-93.37,57.59-151.25,12.29-95.95-11.5-183.47-66.9-246.31h-.1v-.1h0ZM1244.44,678h.1c3.07-7.33,6.84-14.77,11.3-22.1,29.24-47.77,76.62-70.87,144.71-70.87,56.6,0,102.98,18.83,134.4,54.51,10.01,11.4,18.34,24.28,24.88,38.46h-315.39Z"/>
  <path class="cls-2" d="M658.86,729.44c-.3-6.54-4.16-65.42-39.25-125.48-21.71-37.17-50.65-66.9-86.13-88.41-43.12-26.07-95.05-39.35-154.23-39.35-44.11,0-85.34,8.03-122.21,23.79-36.48,15.56-67.99,38.26-93.67,67.6-55.41,62.94-79.2,150.46-66.9,246.31,7.43,57.79,26.76,108.73,57.59,151.25,32.81,45.2,77.01,79,131.43,100.51,43.12,17.05,90.69,25.57,141.14,25.57,39.25,0,80.09-5.15,121.91-15.56,125.58-31.22,234.41-99.12,332.74-207.45,73.05-80.48,130.14-172.56,185.94-265.34,20.32-33.7,40.54-67.3,60.86-101l-.2.2c10.01-16.55,20.02-33.2,29.93-49.76.59-.99,1.19-1.98,1.78-2.97l-95.55-50.05c-20.91,33.7-46.09,75.43-49.96,81.57-41.13,66.9-80.19,135.2-124.39,200.02-39.05-56.79-75.33-117.95-111.61-180.59l-93.96,54.51c43.81,75.53,87.72,149.27,136.88,217.27-6.64,7.93-13.48,15.76-20.42,23.29-40.34,44.5-81.08,79.79-124.69,108.14-48.17,31.22-98.42,53.13-153.73,66.81-51.14,12.69-126.87,22-196.95-5.65-87.12-34.39-113.89-108.34-121.12-164.44-.59-4.56-1.09-9.12-1.39-13.68h458.92l-2.78-57.09h0l.02-.02ZM219.77,677.8c6.54-14.17,14.87-27.06,24.88-38.46h.1c31.32-35.58,77.81-54.42,134.4-54.42,68.19,0,115.57,23.19,144.71,70.87,4.46,7.33,8.23,14.77,11.3,22H219.77Z"/>
  <polygon class="cls-2" points="304.51 1144.64 304.51 1323.15 434.06 1323.15 434.06 1266.76 366.26 1266.76 366.26 1144.64 304.51 1144.64"/>
  <polygon class="cls-2" points="686.91 1190.34 686.91 1144.64 558.35 1144.64 558.35 1323.15 689.39 1323.15 689.39 1276.67 618.32 1276.67 618.32 1255.26 680.27 1255.26 680.27 1210.95 618.32 1210.95 618.32 1190.34 686.91 1190.34"/>
  <polygon class="cls-2" points="884.94 1199.95 867.9 1144.64 802.08 1144.64 866.11 1323.15 930.34 1323.15 994.27 1144.64 928.76 1144.64 911.71 1199.95 898.72 1242.87 897.63 1242.87 884.94 1199.95"/>
  <polygon class="cls-2" points="1241.57 1190.34 1241.57 1144.64 1113.11 1144.64 1113.11 1323.15 1244.05 1323.15 1244.05 1276.67 1172.98 1276.67 1172.98 1255.26 1234.93 1255.26 1234.93 1210.95 1172.98 1210.95 1172.98 1190.34 1241.57 1190.34"/>
  <polygon class="cls-2" points="1372.01 1144.64 1372.01 1323.15 1501.56 1323.15 1501.56 1266.76 1433.76 1266.76 1433.76 1144.64 1372.01 1144.64"/>
</svg>